solid c:\devel\robot_simulation\robot_def\cobra1_o.stl
  facet normal -1391.135 39390.855 -0.010
    outer loop
      vertex  2.647 -74.953  0.000
      vertex  2.647 -74.953 92.800
      vertex 427.118 -59.963  0.000
    endloop
  endfacet
  facet normal 19.211 817.708 -0.000
    outer loop
      vertex  2.647 -74.953 92.800
      vertex  2.647 -74.953  0.000
      vertex -6.164 -74.746 92.800
    endloop
  endfacet
  facet normal -1391.131 39390.855  0.008
    outer loop
      vertex 427.118 -59.963 92.800
      vertex 427.118 -59.963  0.000
      vertex  2.647 -74.953 92.800
    endloop
  endfacet
  facet normal  0.000  0.000 63657.738
    outer loop
      vertex  1.661 74.982  0.000
      vertex  2.647 -74.953  0.000
      vertex 427.118 -59.963  0.000
    endloop
  endfacet
  facet normal 89.780 1386.365  5.432
    outer loop
      vertex  2.647 -74.953  0.000
      vertex -12.292 -73.986  0.000
      vertex -6.164 -74.746 92.800
    endloop
  endfacet
  facet normal  0.000  0.000 -9.114
    outer loop
      vertex  2.647 -74.953 92.800
      vertex -6.164 -74.746 92.800
      vertex -14.891 -73.507 92.800
    endloop
  endfacet
  facet normal -139.671 1057.882  0.000
    outer loop
      vertex 427.118 -59.963  0.000
      vertex 427.118 -59.963 92.800
      vertex 438.517 -58.458  0.000
    endloop
  endfacet
  facet normal  0.000  0.000 -63630.914
    outer loop
      vertex 427.118 -59.963 92.800
      vertex  2.647 -74.953 92.800
      vertex  2.647 74.953 92.800
    endloop
  endfacet
  facet normal  0.000  0.000 2238.966
    outer loop
      vertex  1.661 74.982  0.000
      vertex -12.292 -73.986  0.000
      vertex  2.647 -74.953  0.000
    endloop
  endfacet
  facet normal  0.000  0.000 51022.969
    outer loop
      vertex  1.661 74.982  0.000
      vertex 427.118 -59.963  0.000
      vertex 427.118 59.963  0.000
    endloop
  endfacet
  facet normal 115.013 809.812 -0.959
    outer loop
      vertex -6.164 -74.746 92.800
      vertex -12.292 -73.986  0.000
      vertex -14.891 -73.507 92.800
    endloop
  endfacet
  facet normal  0.000  0.000 -27.216
    outer loop
      vertex  2.647 -74.953 92.800
      vertex -14.891 -73.507 92.800
      vertex -23.412 -71.252 92.800
    endloop
  endfacet
  facet normal -139.672 1057.891  0.000
    outer loop
      vertex 438.517 -58.458 92.800
      vertex 438.517 -58.458  0.000
      vertex 427.118 -59.963 92.800
    endloop
  endfacet
  facet normal  0.000  0.000 1367.099
    outer loop
      vertex 427.118 -59.963  0.000
      vertex 438.517 -58.458  0.000
      vertex 427.118 59.963  0.000
    endloop
  endfacet
  facet normal  0.000  0.000 -3799.056
    outer loop
      vertex  2.647 -74.953 92.800
      vertex -22.696 71.484 92.800
      vertex  2.647 74.953 92.800
    endloop
  endfacet
  facet normal  0.000  0.000 -50904.742
    outer loop
      vertex 427.118 -59.963 92.800
      vertex  2.647 74.953 92.800
      vertex 427.118 59.963 92.800
    endloop
  endfacet
  facet normal  0.000  0.000 2207.143
    outer loop
      vertex  1.661 74.982  0.000
      vertex -26.742 -70.071  0.000
      vertex -12.292 -73.986  0.000
    endloop
  endfacet
  facet normal -1393.766 -39482.355  2.744
    outer loop
      vertex  1.661 74.982  0.000
      vertex 427.118 59.963  0.000
      vertex  2.647 74.953 92.800
    endloop
  endfacet
  facet normal 209.224 790.728  1.778
    outer loop
      vertex -14.891 -73.507 92.800
      vertex -12.292 -73.986  0.000
      vertex -23.412 -71.252 92.800
    endloop
  endfacet
  facet normal  0.000  0.000 -54.056
    outer loop
      vertex  2.647 -74.953 92.800
      vertex -23.412 -71.252 92.800
      vertex -31.609 -68.014 92.800
    endloop
  endfacet
  facet normal -338.911 1011.825  0.000
    outer loop
      vertex 438.517 -58.458 92.800
      vertex 449.420 -54.805  0.000
      vertex 438.517 -58.458  0.000
    endloop
  endfacet
  facet normal  0.000  0.000 -146.734
    outer loop
      vertex 468.169 -41.671 92.800
      vertex 438.517 -58.458 92.800
      vertex 427.118 -59.963 92.800
    endloop
  endfacet
  facet normal  0.000  0.000 5397.617
    outer loop
      vertex 438.517 -58.458  0.000
      vertex 475.325 32.671  0.000
      vertex 427.118 59.963  0.000
    endloop
  endfacet
  facet normal  0.000  0.000 -3623.184
    outer loop
      vertex  2.647 -74.953 92.800
      vertex -45.399 59.699 92.800
      vertex -22.696 71.484 92.800
    endloop
  endfacet
  facet normal -0.000  0.001 -28.101
    outer loop
      vertex -22.696 71.484 92.800
      vertex -10.173 74.307 92.800
      vertex  2.647 74.953 92.800
    endloop
  endfacet
  facet normal -1391.132 -39390.855  0.013
    outer loop
      vertex 427.118 59.963 92.800
      vertex  2.647 74.953 92.800
      vertex 427.118 59.963  0.000
    endloop
  endfacet
  facet normal  0.000  0.000 -3874.683
    outer loop
      vertex 427.118 59.963 92.800
      vertex 459.427 49.141 92.800
      vertex 427.118 -59.963 92.800
    endloop
  endfacet
  facet normal  0.000  0.000 2131.886
    outer loop
      vertex  1.661 74.982  0.000
      vertex -13.264 73.818  0.000
      vertex -26.742 -70.071  0.000
    endloop
  endfacet
  facet normal 363.340 1340.917  4.038
    outer loop
      vertex -12.292 -73.986  0.000
      vertex -26.742 -70.071  0.000
      vertex -23.412 -71.252 92.800
    endloop
  endfacet
  facet normal 59.989 -1189.735 -1.001
    outer loop
      vertex  2.647 74.953 92.800
      vertex -10.173 74.307 92.800
      vertex  1.661 74.982  0.000
    endloop
  endfacet
  facet normal 300.544 760.721 -1.097
    outer loop
      vertex -23.412 -71.252 92.800
      vertex -26.742 -70.071  0.000
      vertex -31.609 -68.014 92.800
    endloop
  endfacet
  facet normal  0.000  0.000 -4279.252
    outer loop
      vertex  2.647 -74.953 92.800
      vertex -31.609 -68.014 92.800
      vertex -45.399 59.699 92.800
    endloop
  endfacet
  facet normal -338.911 1011.828  0.000
    outer loop
      vertex 449.421 -54.805 92.800
      vertex 449.420 -54.805  0.000
      vertex 438.517 -58.458 92.800
    endloop
  endfacet
  facet normal  0.000  0.000 25.222
    outer loop
      vertex 438.517 -58.458  0.000
      vertex 449.420 -54.805  0.000
      vertex 459.427 -49.141  0.000
    endloop
  endfacet
  facet normal  0.000  0.000 -74.739
    outer loop
      vertex 468.169 -41.671 92.800
      vertex 459.427 -49.141 92.800
      vertex 438.517 -58.458 92.800
    endloop
  endfacet
  facet normal  0.000  0.000 -238.559
    outer loop
      vertex 475.325 -32.671 92.800
      vertex 468.169 -41.671 92.800
      vertex 427.118 -59.963 92.800
    endloop
  endfacet
  facet normal  0.000  0.000 1562.516
    outer loop
      vertex 438.517 -58.458  0.000
      vertex 459.427 -49.141  0.000
      vertex 475.325 32.671  0.000
    endloop
  endfacet
  facet normal  0.000  0.000 238.559
    outer loop
      vertex 475.325 32.671  0.000
      vertex 468.169 41.671  0.000
      vertex 427.118 59.963  0.000
    endloop
  endfacet
  facet normal -0.000  0.001 -28.100
    outer loop
      vertex -45.399 59.699 92.800
      vertex -34.553 66.566 92.800
      vertex -22.696 71.484 92.800
    endloop
  endfacet
  facet normal 262.000 -1162.079 -2.602
    outer loop
      vertex -22.696 71.484 92.800
      vertex -13.264 73.818  0.000
      vertex -10.173 74.307 92.800
    endloop
  endfacet
  facet normal -139.674 -1057.894  0.000
    outer loop
      vertex 427.118 59.963 92.800
      vertex 427.118 59.963  0.000
      vertex 438.517 58.458 92.800
    endloop
  endfacet
  facet normal  0.000  0.000 -74.740
    outer loop
      vertex 427.118 59.963 92.800
      vertex 438.517 58.458 92.800
      vertex 459.427 49.141 92.800
    endloop
  endfacet
  facet normal  0.000  0.000 -2266.676
    outer loop
      vertex 459.427 49.141 92.800
      vertex 475.325 32.671 92.800
      vertex 427.118 -59.963 92.800
    endloop
  endfacet
  facet normal 108.009 -1385.066  3.703
    outer loop
      vertex  1.661 74.982  0.000
      vertex -10.173 74.307 92.800
      vertex -13.264 73.818  0.000
    endloop
  endfacet
  facet normal  0.000  0.000 2016.199
    outer loop
      vertex -13.264 73.818  0.000
      vertex -40.126 -63.363  0.000
      vertex -26.742 -70.071  0.000
    endloop
  endfacet
  facet normal 622.420 1242.037  5.117
    outer loop
      vertex -40.126 -63.363  0.000
      vertex -31.609 -68.014 92.800
      vertex -26.742 -70.071  0.000
    endloop
  endfacet
  facet normal  0.000  0.000 -3414.036
    outer loop
      vertex -31.609 -68.014 92.800
      vertex -60.969 -43.678 92.800
      vertex -45.399 59.699 92.800
    endloop
  endfacet
  facet normal -525.700 928.578  0.001
    outer loop
      vertex 449.420 -54.805  0.000
      vertex 449.421 -54.805 92.800
      vertex 459.427 -49.141  0.000
    endloop
  endfacet
  facet normal  0.000  0.000 -25.223
    outer loop
      vertex 459.427 -49.141 92.800
      vertex 449.421 -54.805 92.800
      vertex 438.517 -58.458 92.800
    endloop
  endfacet
  facet normal -693.181 811.241 -0.000
    outer loop
      vertex 468.169 -41.671 92.800
      vertex 468.169 -41.671  0.000
      vertex 459.427 -49.141 92.800
    endloop
  endfacet
  facet normal -835.206 664.117 -0.001
    outer loop
      vertex 475.325 -32.671 92.800
      vertex 475.325 -32.671  0.000
      vertex 468.169 -41.671 92.800
    endloop
  endfacet
  facet normal  0.000  0.000 -3149.963
    outer loop
      vertex 475.325 32.671 92.800
      vertex 475.325 -32.671 92.800
      vertex 427.118 -59.963 92.800
    endloop
  endfacet
  facet normal  0.000  0.000 1402.761
    outer loop
      vertex 459.427 -49.141  0.000
      vertex 483.898 -11.446  0.000
      vertex 475.325 32.671  0.000
    endloop
  endfacet
  facet normal -835.206 -664.117  0.000
    outer loop
      vertex 475.325 32.671 92.800
      vertex 468.169 41.671  0.000
      vertex 475.325 32.671  0.000
    endloop
  endfacet
  facet normal  0.000  0.000 146.732
    outer loop
      vertex 468.169 41.671  0.000
      vertex 459.427 49.141  0.000
      vertex 427.118 59.963  0.000
    endloop
  endfacet
  facet normal 637.286 -1006.442 -3.448
    outer loop
      vertex -45.399 59.699 92.800
      vertex -40.956 62.830  0.000
      vertex -34.553 66.566 92.800
    endloop
  endfacet
  facet normal 456.324 -1100.380 -3.418
    outer loop
      vertex -34.553 66.566 92.800
      vertex -27.661 69.713  0.000
      vertex -22.696 71.484 92.800
    endloop
  endfacet
  facet normal 380.942 -1336.022  5.112
    outer loop
      vertex -27.661 69.713  0.000
      vertex -13.264 73.818  0.000
      vertex -22.696 71.484 92.800
    endloop
  endfacet
  facet normal -139.671 -1057.891  0.000
    outer loop
      vertex 438.517 58.458  0.000
      vertex 438.517 58.458 92.800
      vertex 427.118 59.963  0.000
    endloop
  endfacet
  facet normal  0.000  0.000 -25.222
    outer loop
      vertex 438.517 58.458 92.800
      vertex 449.421 54.805 92.800
      vertex 459.427 49.141 92.800
    endloop
  endfacet
  facet normal  0.000  0.000 -25.221
    outer loop
      vertex 459.427 49.141 92.800
      vertex 468.169 41.671 92.800
      vertex 475.325 32.671 92.800
    endloop
  endfacet
  facet normal  0.000  0.000 3503.603
    outer loop
      vertex -13.264 73.818  0.000
      vertex -40.956 62.830  0.000
      vertex -40.126 -63.363  0.000
    endloop
  endfacet
  facet normal 592.660 1033.351 -2.609
    outer loop
      vertex -31.609 -68.014 92.800
      vertex -40.126 -63.363  0.000
      vertex -42.744 -61.627 92.800
    endloop
  endfacet
  facet normal  0.000  0.000 -83.476
    outer loop
      vertex -31.609 -68.014 92.800
      vertex -52.627 -53.436 92.800
      vertex -60.969 -43.678 92.800
    endloop
  endfacet
  facet normal  0.000  0.000 -849.521
    outer loop
      vertex -60.969 -43.678 92.800
      vertex -67.524 -32.642 92.800
      vertex -45.399 59.699 92.800
    endloop
  endfacet
  facet normal -525.701 928.575  0.000
    outer loop
      vertex 459.427 -49.141 92.800
      vertex 459.427 -49.141  0.000
      vertex 449.421 -54.805 92.800
    endloop
  endfacet
  facet normal -835.206 664.120 -0.000
    outer loop
      vertex 468.169 -41.671  0.000
      vertex 468.169 -41.671 92.800
      vertex 475.325 -32.671  0.000
    endloop
  endfacet
  facet normal -693.181 811.249  0.000
    outer loop
      vertex 459.427 -49.141 92.800
      vertex 468.169 -41.671  0.000
      vertex 459.427 -49.141  0.000
    endloop
  endfacet
  facet normal -946.559 492.598 -0.001
    outer loop
      vertex 475.325 -32.671 92.800
      vertex 480.633 -22.471  0.000
      vertex 475.325 -32.671  0.000
    endloop
  endfacet
  facet normal  0.000  0.000 -346.847
    outer loop
      vertex 475.325 32.671 92.800
      vertex 480.633 22.471 92.800
      vertex 475.325 -32.671 92.800
    endloop
  endfacet
  facet normal  0.000  0.000 146.733
    outer loop
      vertex 459.427 -49.141  0.000
      vertex 468.169 -41.671  0.000
      vertex 483.898 -11.446  0.000
    endloop
  endfacet
  facet normal  0.000  0.000 146.733
    outer loop
      vertex 483.898 -11.446  0.000
      vertex 480.633 22.471  0.000
      vertex 475.325 32.671  0.000
    endloop
  endfacet
  facet normal -835.206 -664.117  0.000
    outer loop
      vertex 468.169 41.671 92.800
      vertex 468.169 41.671  0.000
      vertex 475.325 32.671 92.800
    endloop
  endfacet
  facet normal -946.559 -492.601  0.000
    outer loop
      vertex 475.325 32.671 92.800
      vertex 475.325 32.671  0.000
      vertex 480.633 22.471 92.800
    endloop
  endfacet
  facet normal -693.181 -811.244  0.000
    outer loop
      vertex 468.169 41.671  0.000
      vertex 468.169 41.671 92.800
      vertex 459.427 49.141  0.000
    endloop
  endfacet
  facet normal  0.000  0.000 74.740
    outer loop
      vertex 459.427 49.141  0.000
      vertex 438.517 58.458  0.000
      vertex 427.118 59.963  0.000
    endloop
  endfacet
  facet normal 871.009 -1082.311  5.182
    outer loop
      vertex -40.956 62.830  0.000
      vertex -45.399 59.699 92.800
      vertex -52.618 53.444  0.000
    endloop
  endfacet
  facet normal 638.702 -1233.744  5.605
    outer loop
      vertex -34.553 66.566 92.800
      vertex -40.956 62.830  0.000
      vertex -27.661 69.713  0.000
    endloop
  endfacet
  facet normal  0.000 -0.001 44.513
    outer loop
      vertex -13.264 73.818  0.000
      vertex -27.661 69.713  0.000
      vertex -40.956 62.830  0.000
    endloop
  endfacet
  facet normal -338.911 -1011.817  0.000
    outer loop
      vertex 438.517 58.458 92.800
      vertex 438.517 58.458  0.000
      vertex 449.421 54.805 92.800
    endloop
  endfacet
  facet normal -525.701 -928.578  0.000
    outer loop
      vertex 449.421 54.805 92.800
      vertex 449.421 54.805  0.000
      vertex 459.427 49.141 92.800
    endloop
  endfacet
  facet normal -693.181 -811.244  0.000
    outer loop
      vertex 459.427 49.141 92.800
      vertex 459.427 49.141  0.000
      vertex 468.169 41.671 92.800
    endloop
  endfacet
  facet normal  0.000  0.000 2696.334
    outer loop
      vertex -40.956 62.830  0.000
      vertex -62.185 41.929  0.000
      vertex -40.126 -63.363  0.000
    endloop
  endfacet
  facet normal 856.699 1093.673  3.713
    outer loop
      vertex -40.126 -63.363  0.000
      vertex -51.911 -54.132  0.000
      vertex -42.744 -61.627 92.800
    endloop
  endfacet
  facet normal  0.000  0.000 -28.100
    outer loop
      vertex -31.609 -68.014 92.800
      vertex -42.744 -61.627 92.800
      vertex -52.627 -53.436 92.800
    endloop
  endfacet
  facet normal 905.459 774.081  1.183
    outer loop
      vertex -52.627 -53.436 92.800
      vertex -51.911 -54.132  0.000
      vertex -60.969 -43.678 92.800
    endloop
  endfacet
  facet normal 1024.201 608.339 -1.145
    outer loop
      vertex -60.969 -43.678 92.800
      vertex -61.628 -42.743  0.000
      vertex -67.524 -32.642 92.800
    endloop
  endfacet
  facet normal  0.000  0.000 -1194.385
    outer loop
      vertex -67.524 -32.642 92.800
      vertex -62.821 40.970 92.800
      vertex -45.399 59.699 92.800
    endloop
  endfacet
  facet normal  0.000  0.000 25.222
    outer loop
      vertex 468.169 -41.671  0.000
      vertex 475.325 -32.671  0.000
      vertex 480.633 -22.471  0.000
    endloop
  endfacet
  facet normal -946.559 492.601 -0.000
    outer loop
      vertex 480.633 -22.471 92.800
      vertex 480.633 -22.471  0.000
      vertex 475.325 -32.671 92.800
    endloop
  endfacet
  facet normal  0.000  0.000 -238.560
    outer loop
      vertex 480.633 22.471 92.800
      vertex 480.633 -22.471 92.800
      vertex 475.325 -32.671 92.800
    endloop
  endfacet
  facet normal  0.000  0.000 74.739
    outer loop
      vertex 468.169 -41.671  0.000
      vertex 480.633 -22.471  0.000
      vertex 483.898 -11.446  0.000
    endloop
  endfacet
  facet normal  0.000  0.000 74.740
    outer loop
      vertex 483.898 -11.446  0.000
      vertex 483.898 11.446  0.000
      vertex 480.633 22.471  0.000
    endloop
  endfacet
  facet normal -946.559 -492.601  0.000
    outer loop
      vertex 480.633 22.471  0.000
      vertex 480.633 22.471 92.800
      vertex 475.325 32.671  0.000
    endloop
  endfacet
  facet normal  0.000  0.000 25.222
    outer loop
      vertex 459.427 49.141  0.000
      vertex 449.421 54.805  0.000
      vertex 438.517 58.458  0.000
    endloop
  endfacet
  facet normal 799.573 -883.026 -2.692
    outer loop
      vertex -54.914 51.083 92.800
      vertex -52.618 53.444  0.000
      vertex -45.399 59.699 92.800
    endloop
  endfacet
  facet normal  0.000  0.000 44.512
    outer loop
      vertex -40.956 62.830  0.000
      vertex -52.618 53.444  0.000
      vertex -62.185 41.929  0.000
    endloop
  endfacet
  facet normal -338.911 -1011.820  0.000
    outer loop
      vertex 449.421 54.805  0.000
      vertex 449.421 54.805 92.800
      vertex 438.517 58.458  0.000
    endloop
  endfacet
  facet normal -525.701 -928.578  0.000
    outer loop
      vertex 459.427 49.141 92.800
      vertex 449.421 54.805  0.000
      vertex 459.427 49.141  0.000
    endloop
  endfacet
  facet normal  0.000  0.000 1809.165
    outer loop
      vertex -62.185 41.929  0.000
      vertex -61.628 -42.743  0.000
      vertex -40.126 -63.363  0.000
    endloop
  endfacet
  facet normal  0.000  0.000 44.512
    outer loop
      vertex -61.628 -42.743  0.000
      vertex -51.911 -54.132  0.000
      vertex -40.126 -63.363  0.000
    endloop
  endfacet
  facet normal 760.194 917.149 -1.012
    outer loop
      vertex -42.744 -61.627 92.800
      vertex -51.911 -54.132  0.000
      vertex -52.627 -53.436 92.800
    endloop
  endfacet
  facet normal 1056.848 901.736  1.579
    outer loop
      vertex -61.628 -42.743  0.000
      vertex -60.969 -43.678 92.800
      vertex -51.911 -54.132  0.000
    endloop
  endfacet
  facet normal 1214.891 673.873  3.837
    outer loop
      vertex -61.628 -42.743  0.000
      vertex -68.890 -29.652  0.000
      vertex -67.524 -32.642 92.800
    endloop
  endfacet
  facet normal  0.000  0.000 -393.354
    outer loop
      vertex -67.524 -32.642 92.800
      vertex -68.887 29.658 92.800
      vertex -62.821 40.970 92.800
    endloop
  endfacet
  facet normal  0.000  0.000 -28.100
    outer loop
      vertex -62.821 40.970 92.800
      vertex -54.914 51.083 92.800
      vertex -45.399 59.699 92.800
    endloop
  endfacet
  facet normal -1023.146 302.985 -0.000
    outer loop
      vertex 480.633 -22.471  0.000
      vertex 480.633 -22.471 92.800
      vertex 483.898 -11.446  0.000
    endloop
  endfacet
  facet normal  0.000  0.000 -196.253
    outer loop
      vertex 480.633 22.471 92.800
      vertex 485.000 -0.000 92.800
      vertex 480.633 -22.471 92.800
    endloop
  endfacet
  facet normal  0.000  0.000 25.223
    outer loop
      vertex 483.898 -11.446  0.000
      vertex 485.000 -0.000  0.000
      vertex 483.898 11.446  0.000
    endloop
  endfacet
  facet normal -1023.148 -302.990  0.000
    outer loop
      vertex 483.898 11.446 92.800
      vertex 480.633 22.471  0.000
      vertex 483.898 11.446  0.000
    endloop
  endfacet
  facet normal -1023.148 -302.993  0.000
    outer loop
      vertex 480.633 22.471 92.800
      vertex 480.633 22.471  0.000
      vertex 483.898 11.446 92.800
    endloop
  endfacet
  facet normal 1068.616 -887.757  3.842
    outer loop
      vertex -62.185 41.929  0.000
      vertex -52.618 53.444  0.000
      vertex -54.914 51.083 92.800
    endloop
  endfacet
  facet normal  0.003  0.000 607.564
    outer loop
      vertex -62.185 41.929  0.000
      vertex -68.890 -29.652  0.000
      vertex -61.628 -42.743  0.000
    endloop
  endfacet
  facet normal 1112.939 424.776 -2.689
    outer loop
      vertex -67.524 -32.642 92.800
      vertex -68.890 -29.652  0.000
      vertex -72.101 -20.649 92.800
    endloop
  endfacet
  facet normal  0.000  0.000 -268.820
    outer loop
      vertex -67.524 -32.642 92.800
      vertex -72.101 -20.649 92.800
      vertex -68.887 29.658 92.800
    endloop
  endfacet
  facet normal 1049.825 -562.967  1.174
    outer loop
      vertex -68.887 29.658 92.800
      vertex -69.274 28.743  0.000
      vertex -62.821 40.970 92.800
    endloop
  endfacet
  facet normal 938.446 -733.742 -1.151
    outer loop
      vertex -62.821 40.970 92.800
      vertex -62.185 41.929  0.000
      vertex -54.914 51.083 92.800
    endloop
  endfacet
  facet normal -1023.146 302.993  0.001
    outer loop
      vertex 483.898 -11.446 92.800
      vertex 483.898 -11.446  0.000
      vertex 480.633 -22.471 92.800
    endloop
  endfacet
  facet normal  0.000  0.000 -25.222
    outer loop
      vertex 480.633 22.471 92.800
      vertex 483.898 11.446 92.800
      vertex 485.000 -0.000 92.800
    endloop
  endfacet
  facet normal  0.000  0.000 -25.222
    outer loop
      vertex 485.000 -0.000 92.800
      vertex 483.898 -11.446 92.800
      vertex 480.633 -22.471 92.800
    endloop
  endfacet
  facet normal -1062.152 102.253  0.001
    outer loop
      vertex 483.898 -11.446 92.800
      vertex 485.000 -0.000  0.000
      vertex 483.898 -11.446  0.000
    endloop
  endfacet
  facet normal -1062.157 -102.250  0.000
    outer loop
      vertex 485.000 -0.000  0.000
      vertex 485.000 -0.000 92.800
      vertex 483.898 11.446  0.000
    endloop
  endfacet
  facet normal -1062.156 -102.248  0.000
    outer loop
      vertex 483.898 11.446 92.800
      vertex 483.898 11.446  0.000
      vertex 485.000 -0.000 92.800
    endloop
  endfacet
  facet normal -0.000  0.000 419.013
    outer loop
      vertex -62.185 41.929  0.000
      vertex -69.274 28.743  0.000
      vertex -68.890 -29.652  0.000
    endloop
  endfacet
  facet normal 1324.530 419.161  5.179
    outer loop
      vertex -68.890 -29.652  0.000
      vertex -73.406 -15.379  0.000
      vertex -72.101 -20.649 92.800
    endloop
  endfacet
  facet normal  0.000  0.000 -164.508
    outer loop
      vertex -72.101 -20.649 92.800
      vertex -72.936 17.476 92.800
      vertex -68.887 29.658 92.800
    endloop
  endfacet
  facet normal 1130.451 -375.699 -1.007
    outer loop
      vertex -72.936 17.476 92.800
      vertex -69.274 28.743  0.000
      vertex -68.887 29.658 92.800
    endloop
  endfacet
  facet normal 1223.649 -657.838  1.587
    outer loop
      vertex -69.274 28.743  0.000
      vertex -62.185 41.929  0.000
      vertex -62.821 40.970 92.800
    endloop
  endfacet
  facet normal -1062.152 102.248 -0.000
    outer loop
      vertex 485.000 -0.000 92.800
      vertex 485.000 -0.000  0.000
      vertex 483.898 -11.446 92.800
    endloop
  endfacet
  facet normal -0.001  0.000 258.279
    outer loop
      vertex -69.274 28.743  0.000
      vertex -73.406 -15.379  0.000
      vertex -68.890 -29.652  0.000
    endloop
  endfacet
  facet normal 1169.075 228.766 -3.447
    outer loop
      vertex -72.101 -20.649 92.800
      vertex -73.406 -15.379  0.000
      vertex -74.567 -8.051 92.800
    endloop
  endfacet
  facet normal  0.000  0.000 -83.477
    outer loop
      vertex -72.101 -20.649 92.800
      vertex -74.567 -8.051 92.800
      vertex -72.936 17.476 92.800
    endloop
  endfacet
  facet normal 1329.926 -401.704  3.707
    outer loop
      vertex -72.936 17.476 92.800
      vertex -73.602 14.412  0.000
      vertex -69.274 28.743  0.000
    endloop
  endfacet
  facet normal  0.000  0.000 131.764
    outer loop
      vertex -69.274 28.743  0.000
      vertex -73.602 14.412  0.000
      vertex -73.406 -15.379  0.000
    endloop
  endfacet
  facet normal 1381.391 147.744  5.605
    outer loop
      vertex -74.998 -0.493  0.000
      vertex -74.567 -8.051 92.800
      vertex -73.406 -15.379  0.000
    endloop
  endfacet
  facet normal  0.000  0.000 -28.100
    outer loop
      vertex -74.567 -8.051 92.800
      vertex -74.847  4.782 92.800
      vertex -72.936 17.476 92.800
    endloop
  endfacet
  facet normal 1177.956 -177.421 -2.606
    outer loop
      vertex -74.847  4.782 92.800
      vertex -73.602 14.412  0.000
      vertex -72.936 17.476 92.800
    endloop
  endfacet
  facet normal  0.000  0.000 44.513
    outer loop
      vertex -73.602 14.412  0.000
      vertex -74.998 -0.493  0.000
      vertex -73.406 -15.379  0.000
    endloop
  endfacet
  facet normal 1190.956 26.055 -3.419
    outer loop
      vertex -74.567 -8.051 92.800
      vertex -74.998 -0.493  0.000
      vertex -74.847  4.782 92.800
    endloop
  endfacet
  facet normal 1383.208 -129.562  5.114
    outer loop
      vertex -74.998 -0.493  0.000
      vertex -73.602 14.412  0.000
      vertex -74.847  4.782 92.800
    endloop
  endfacet
endsolid c:\devel\robot_simulation\robot_def\cobra1_o.stl
